<?xml version="1.0" encoding="UTF-8" standalone="no"?>
<!-- Created with Inkscape (http://www.inkscape.org/) -->

<svg
   xmlns:dc="http://purl.org/dc/elements/1.1/"
   xmlns:cc="http://creativecommons.org/ns#"
   xmlns:rdf="http://www.w3.org/1999/02/22-rdf-syntax-ns#"
   xmlns:svg="http://www.w3.org/2000/svg"
   xmlns="http://www.w3.org/2000/svg"
   xmlns:sodipodi="http://sodipodi.sourceforge.net/DTD/sodipodi-0.dtd"
   xmlns:inkscape="http://www.inkscape.org/namespaces/inkscape"
   width="210mm"
   height="297mm"
   viewBox="0 0 210 297"
   version="1.1"
   id="svg3769"
   inkscape:version="0.92.4 (5da689c313, 2019-01-14)"
   sodipodi:docname="beardy-logo.svg">
  <defs
     id="defs3763">
    <inkscape:path-effect
       effect="bend_path"
       id="path-effect3857"
       is_visible="true"
       bendpath="M 17.994562,145.52764 C 393.09895,-8.632811 745.68991,43.815662 1092.9128,145.52764"
       prop_scale="1"
       scale_y_rel="false"
       vertical="false"
       bendpath-nodetypes="cc" />
  </defs>
  <sodipodi:namedview
     id="base"
     pagecolor="#ffffff"
     bordercolor="#666666"
     borderopacity="1.0"
     inkscape:pageopacity="0.0"
     inkscape:pageshadow="2"
     inkscape:zoom="0.49497475"
     inkscape:cx="235.72318"
     inkscape:cy="650.12018"
     inkscape:document-units="mm"
     inkscape:current-layer="layer1"
     showgrid="false"
     inkscape:window-width="1366"
     inkscape:window-height="705"
     inkscape:window-x="-8"
     inkscape:window-y="-8"
     inkscape:window-maximized="1"
     inkscape:snap-text-baseline="true" />
  <metadata
     id="metadata3766">
    <rdf:RDF>
      <cc:Work
         rdf:about="">
        <dc:format>image/svg+xml</dc:format>
        <dc:type
           rdf:resource="http://purl.org/dc/dcmitype/StillImage" />
        <dc:title></dc:title>
      </cc:Work>
    </rdf:RDF>
  </metadata>
  <g
     inkscape:label="Layer 1"
     inkscape:groupmode="layer"
     id="layer1">
    <path
       style="fill:#000000;stroke-width:0.22190829"
       d="m 109.0034,160.51459 c -4.94324,-0.36453 -6.77898,-0.82951 -9.172869,-2.32344 -1.679424,-1.04805 -1.94013,-1.14114 -3.197085,-1.14154 -1.854023,-2.6e-4 -2.66142,-0.40533 -4.391238,-2.20131 -2.305613,-2.39382 -5.095872,-7.24595 -5.627257,-9.78559 -0.14237,-0.68037 -0.324277,-2.43223 -0.404265,-3.89303 -0.08001,-1.4608 -0.186381,-2.656 -0.236441,-2.656 -0.05006,0 -0.338486,0.30515 -0.640947,0.67813 -0.302447,0.37296 -0.630684,0.67813 -0.7294,0.67813 -0.22855,0 -1.212089,-4.30855 -1.513032,-6.62811 -0.416275,-3.20853 -0.287296,-7.83126 0.316153,-11.33062 0.559571,-3.245 0.651027,-5.55659 0.313487,-7.92316 -0.106393,-0.74594 -0.290892,-4.50955 -0.409981,-8.36359 -0.3565,-11.536568 -1.121235,-16.342438 -3.807148,-23.925528 -0.758989,-2.14285 -1.278222,-4.69934 -1.510649,-7.43789 -0.06064,-0.71485 -0.06399,-1.29975 -0.0073,-1.29975 0.05666,0 0.834148,0.51191 1.727745,1.13758 2.336047,1.63564 2.358536,1.63508 1.700942,-0.0425 -0.850721,-2.17013 -1.761561,-5.3576 -2.599339,-9.09639 -0.415009,-1.85204 -0.728128,-3.38521 -0.695821,-3.40704 0.03227,-0.0218 0.548914,-0.22223 1.147985,-0.44532 1.536797,-0.57229 5.773019,-2.65331 5.773019,-2.83597 0,-0.0836 -1.078354,-0.39484 -2.396346,-0.69152 -1.317993,-0.29668 -2.396346,-0.60736 -2.396346,-0.6904 0,-0.47396 3.760059,-3.40279 5.555165,-4.32711 2.393822,-1.23259 3.253051,-1.40792 6.916461,-1.41132 1.886979,-0.002 3.430988,-0.0593 3.431124,-0.12775 1.31e-4,-0.0686 -0.783991,-0.6165 -1.742533,-1.21776 -0.958536,-0.60125 -1.742799,-1.12499 -1.742799,-1.16387 0,-0.14416 4.917769,-1.71404 7.051012,-2.25085 7.112363,-1.78976 13.392833,-0.82968 17.894113,2.73544 0.56196,0.44511 1.06098,0.76858 1.10893,0.71884 0.048,-0.0497 -0.16305,-0.72934 -0.46885,-1.51022 -0.3058,-0.7809 -0.4986,-1.47936 -0.42843,-1.55216 0.0702,-0.0728 1.03697,-0.0132 2.14848,0.13248 6.30478,0.82626 11.32888,4.17976 14.75618,9.84949 0.64992,1.07517 1.24254,1.95501 1.31693,1.95521 0.0744,1.9e-4 0.20261,-0.61746 0.28495,-1.37258 l 0.1497,-1.37295 1.02215,0.97586 c 1.81712,1.73486 3.49587,3.84865 4.26481,5.37002 1.0181,2.01434 1.29251,3.7719 1.10309,7.06505 -0.0845,1.46932 -0.10075,2.6715 -0.036,2.6715 0.0647,0 0.38912,-0.73747 0.7209,-1.63882 0.33177,-0.90134 0.67064,-1.72204 0.75302,-1.82377 0.24445,-0.30183 0.643,3.08482 0.64136,5.4497 -0.002,2.6302 -0.5096,5.02364 -1.64052,7.73273 -1.62209,3.88563 -2.12765,5.71259 -2.91475,10.53317 -0.60125,3.68238 -0.88903,7.753128 -0.89161,12.612518 -9.7e-4,2.25085 -0.14634,5.4148 -0.32253,7.03102 -0.44271,4.06091 -0.4076,6.53179 0.1397,9.83283 0.53796,3.24479 0.62944,8.75202 0.19898,11.98027 -0.31306,2.34774 -1.08628,5.88005 -1.28476,5.8691 -0.0799,-0.005 -0.39032,-0.15338 -0.68987,-0.33106 -0.29954,-0.17767 -0.60466,-0.32664 -0.67805,-0.33104 -0.0734,-0.005 -0.20265,0.88203 -0.28725,1.96986 -0.21554,2.77122 -0.67627,5.09883 -1.27943,6.46352 -1.56405,3.53887 -4.57656,7.59913 -6.67528,8.99696 -0.81059,0.53989 -1.19902,0.64507 -2.38224,0.64507 -1.3147,0 -1.56119,0.0874 -3.51881,1.24755 -2.40019,1.42246 -3.6795,1.75666 -8.17392,2.13536 -2.68063,0.22586 -3.44493,0.23723 -5.54329,0.0824 z m -4.20728,-28.27048 c 0.71648,-0.35321 1.76408,-1.52562 2.96481,-3.31806 0.3902,-0.58249 0.40108,-0.58429 3.52733,-0.58429 h 3.1359 l 0.97878,1.31983 c 1.32866,1.79164 2.36408,2.6917 3.34456,2.90732 1.02016,0.22434 3.46431,0.21696 5.12412,-0.0155 1.46487,-0.20515 1.47528,-0.23833 0.79935,-2.54905 -0.54846,-1.87495 -1.29066,-3.11703 -2.13253,-3.56875 -0.82086,-0.44045 -10.65906,-3.5189 -11.24581,-3.5189 -0.56259,0 -9.23062,2.74546 -10.56751,3.34707 -1.383568,0.62264 -1.905039,1.31061 -2.628765,3.4681 -0.89485,2.66767 -0.910447,2.61533 0.831508,2.7906 0.808757,0.0814 1.568517,0.18985 1.688337,0.24103 0.5,0.21356 3.43218,-0.1508 4.17992,-0.51941 z m -10.954428,-3.45027 c 0.785545,-2.79969 1.909332,-4.99487 3.125843,-6.10597 1.131198,-1.03317 4.877375,-3.07505 7.491175,-4.08313 1.68867,-0.65128 1.94871,-0.69085 3.56437,-0.54246 2.27881,0.20931 4.12581,0.20829 6.54786,-0.003 1.94203,-0.16989 2.00535,-0.15937 4.03021,0.67075 2.47009,1.01265 5.14301,2.44823 6.63785,3.56507 1.42059,1.06138 2.53055,2.99774 3.43396,5.99071 0.38465,1.27428 0.76099,2.3169 0.83631,2.31693 0.0753,3e-5 0.26429,-0.31892 0.41994,-0.7088 0.15563,-0.38987 0.76387,-1.53421 1.35165,-2.54298 2.23174,-3.83026 2.67428,-5.11998 3.55132,-10.34961 0.31826,-1.89776 1.06983,-5.48807 1.67016,-7.97848 1.0848,-4.50014 1.09218,-4.55544 1.19968,-8.98687 0.0595,-2.452378 0.043,-4.634958 -0.0365,-4.850178 -0.23134,-0.62554 -1.12083,1.13753 -2.30366,4.56611 -1.23923,3.592078 -1.8314,4.870288 -2.61903,5.653268 -0.89154,0.88629 -3.16845,1.21976 -8.39269,1.22919 -4.21792,0.008 -4.40597,-0.0114 -5.44955,-0.551 -1.52548,-0.78876 -2.74698,-2.41256 -4.76584,-6.335408 -0.89759,-1.74413 -1.66595,-2.69974 -2.56075,-3.18479 -1.00189,-0.54309 -0.73163,-0.88389 -3.98657,5.027238 -1.41287,2.56584 -3.17306,4.46459 -4.47634,4.82872 -1.49792,0.41851 -10.421139,0.17889 -11.922883,-0.32019 -1.917922,-0.63738 -2.716841,-2.15799 -4.108673,-7.820258 -0.949597,-3.86312 -1.597563,-5.74799 -1.876506,-5.45855 -0.330057,0.34246 -0.472635,7.563228 -0.19719,9.986568 0.134333,1.18187 0.685664,4.00209 1.225173,6.26714 0.539519,2.26504 1.32335,6.03298 1.741868,8.37317 0.993265,5.5541 1.208877,6.17277 3.372062,9.67605 0.643923,1.04286 1.197827,2.26078 1.350853,2.97029 0.14266,0.66146 0.323291,1.12297 0.401411,1.02558 0.07812,-0.0974 0.41315,-1.14342 0.744536,-2.32449 z m 8.770618,-23.50031 c 1.36324,-0.62423 2.48677,-1.76956 3.66668,-3.73784 1.12058,-1.869278 1.85301,-4.001538 1.85301,-5.394468 0,-0.85755 -0.10733,-1.09868 -0.74936,-1.6836 -0.50613,-0.46111 -1.1602,-0.76696 -2.0151,-0.94231 -1.28379,-0.26331 -2.69224,-0.62682 -4.86027,-1.2544 -3.074837,-0.89006 -7.596447,-0.78763 -10.509003,0.23805 -0.869895,0.30634 -1.641832,0.5577 -1.715404,0.55857 -0.156768,0.002 -1.28226,-1.64431 -1.28226,-1.87543 0,-0.0866 0.176705,-0.15738 0.392671,-0.15738 0.21598,0 1.809,-0.3729 3.540051,-0.82868 2.712182,-0.71408 3.493801,-0.82925 5.652658,-0.8329 4.472547,-0.008 8.989847,1.11922 11.629157,2.90075 2.48851,1.67973 3.8677,1.65589 6.56828,-0.11357 2.2954,-1.50396 5.7162,-2.46957 10.29646,-2.90644 2.0039,-0.19115 2.23826,-0.16318 5.69643,0.67965 1.9836,0.48346 4.23306,0.94505 4.99879,1.02576 l 1.39225,0.14675 -0.15843,-0.88332 c -0.0871,-0.48584 -0.63223,-2.40911 -1.2113,-4.27396 -2.17476,-7.00374 -2.24708,-8.94569 -0.47951,-12.87593 0.61293,-1.36288 1.08067,-2.51297 1.03943,-2.55576 -0.0781,-0.0811 -2.14056,2.12406 -2.6415,2.82422 -0.26463,0.36985 -0.37734,0.31032 -1.44398,-0.76244 -1.17048,-1.17718 -2.36077,-1.91759 -3.55329,-2.21028 -1.12898,-0.27708 -1.55819,-0.72962 -2.74045,-2.88934 -1.47329,-2.69137 -3.0803,-4.90745 -4.81483,-6.63971 -1.66622,-1.66404 -3.24106,-3.03308 -3.489,-3.03308 -0.10022,0 0.75013,1.13204 1.88979,2.51565 2.10277,2.55292 3.57271,4.69703 4.46373,6.51092 0.52851,1.0759 1.53194,3.73985 1.53194,4.06705 0,0.39262 -6.02923,1.98637 -8.85547,2.34084 l -0.90396,0.11336 -1.73879,-2.4054 c -3.27856,-4.53546 -5.50505,-6.91768 -9.07622,-9.71098 -1.52722,-1.19457 -5.463114,-3.38905 -5.678172,-3.16591 -0.06179,0.0641 0.550506,0.57422 1.360712,1.13352 4.84311,3.34326 9.05362,7.96159 11.71842,12.85341 0.41584,0.76335 0.75606,1.429 0.75606,1.47922 0,0.20148 -3.07605,0.0638 -5.23318,-0.2342 -5.88054,-0.81244 -9.360491,-2.43239 -15.591444,-7.25804 -1.522583,-1.17918 -2.8145,-2.09606 -2.870926,-2.0375 -0.05645,0.0585 1.232501,1.46402 2.864316,3.12327 l 2.96691,3.01683 -1.35227,0.28981 c -1.757296,0.37662 -2.356366,0.71489 -3.307206,1.86752 -1.108646,1.34391 -1.631189,2.99978 -2.093341,6.63349 -0.475104,3.73543 -0.750806,4.66082 -2.311184,7.75754 -0.645835,1.28172 -1.174245,2.56931 -1.174245,2.86133 0,0.3134 0.583977,1.29379 1.425284,2.39282 0.783909,1.02403 1.508455,2.02512 1.610102,2.22463 0.101691,0.19952 0.301152,1.32909 0.443317,2.51015 0.709468,5.893948 1.765172,7.872188 4.58173,8.585508 3.097505,0.78448 7.812237,0.79057 9.511917,0.0123 z m 24.71741,0.34147 c 2.48763,-0.34363 3.69612,-0.75801 4.512,-1.54711 1.26876,-1.22713 2.27824,-4.677138 2.3062,-7.881708 0.0217,-2.48126 -0.29669,-3.00694 -2.29104,-3.78322 -1.14457,-0.44552 -1.92591,-0.56162 -4.34793,-0.64605 -2.76862,-0.0965 -3.10801,-0.06 -5.44624,0.58549 -1.37149,0.37862 -3.46424,0.89322 -4.65056,1.14358 -1.18632,0.25033 -2.26466,0.56694 -2.39635,0.70357 -0.13739,0.14257 -0.23913,1.08636 -0.23876,2.21499 4.8e-4,1.75329 0.076,2.12589 0.69624,3.43585 0.95063,2.007948 2.51336,4.174398 3.4972,4.848248 1.77837,1.21803 4.25828,1.49286 8.35924,0.92636 z m -45.576385,2.53246 c -2.212405,-3.14803 -3.578123,-8.13227 -3.422374,-12.490088 l 0.06462,-1.80712 1.416024,-0.36613 c 1.3975,-0.36133 1.417009,-0.35999 1.491514,0.10304 0.09855,0.61274 -0.265681,1.86435 -1.21142,4.16229 l -0.76751,1.86487 0.808184,2.316918 c 2.209348,6.33387 2.490912,7.17685 2.397224,7.17685 -0.05561,0 -0.40489,-0.43231 -0.776231,-0.96068 z m 59.715225,-3.12501 c 1.6773,-5.061548 1.7278,-6.064938 0.42338,-8.412528 -0.79845,-1.43696 -0.85675,-1.64762 -0.64242,-2.32147 0.31214,-0.98133 0.69275,-1.27517 1.53923,-1.18826 0.46483,0.0477 0.85462,0.28683 1.15794,0.71034 0.65996,0.92145 0.62977,4.42217 -0.0637,7.386098 -0.56357,2.40875 -2.30393,6.38501 -3.15608,7.21081 -0.52016,0.50407 -0.4676,0.26415 0.74164,-3.38499 z m -1.43454,-0.005 c -0.23022,-0.3865 0.49615,-1.0366 0.80277,-0.71845 0.13657,0.14172 0.18937,0.41709 0.11731,0.61193 -0.15077,0.40767 -0.70265,0.47157 -0.92008,0.10649 z m -58.550262,-0.7471 c -0.146897,-0.39722 0.02868,-0.5872 0.54262,-0.5872 0.254159,0 0.399382,0.16438 0.399382,0.45208 0,0.52656 -0.757076,0.63515 -0.942002,0.13512 z"
       id="path3723"
       inkscape:connector-curvature="0"
       inkscape:export-xdpi="96"
       inkscape:export-ydpi="96" />
    <text
       xml:space="preserve"
       style="font-style:normal;font-weight:normal;font-size:10.58333302px;line-height:1.25;font-family:sans-serif;letter-spacing:0px;word-spacing:0px;fill:#000000;fill-opacity:1;stroke:none;stroke-width:0.26458332"
       x="64.255951"
       y="244.83928"
       id="text80"><tspan
         sodipodi:role="line"
         id="tspan78"
         x="64.255951"
         y="254.49478"
         style="font-style:normal;font-variant:normal;font-weight:normal;font-stretch:normal;font-family:'Sitka Subheading';-inkscape-font-specification:'Sitka Subheading';stroke-width:0.26458332" /></text>
    <flowRoot
       xml:space="preserve"
       id="flowRoot144"
       style="fill:black;fill-opacity:1;stroke:none;font-family:sans-serif;font-style:normal;font-weight:normal;font-size:40px;line-height:1.25;letter-spacing:0px;word-spacing:0px"><flowRegion
         id="flowRegion146"><rect
           id="rect148"
           width="108.18337"
           height="159.20604"
           x="520"
           y="766.17078" /></flowRegion><flowPara
         id="flowPara150"></flowPara></flowRoot>    <path
       style="fill:none;stroke:#000000;stroke-width:0.26458332px;stroke-linecap:butt;stroke-linejoin:miter;stroke-opacity:1;opacity:0"
       d="M 47.573975,47.370261 20.312484,108.30771 46.504896,142.51821 176.93242,123.80935"
       id="path3865"
       inkscape:connector-curvature="0" />
    <text
       xml:space="preserve"
       style="font-style:normal;font-weight:normal;font-size:10.58333302px;line-height:1.25;font-family:sans-serif;letter-spacing:0px;word-spacing:0px;fill:#000000;fill-opacity:1;stroke:none;stroke-width:0.26458332"
       x="66.817383"
       y="177.26324"
       id="text4680"
       inkscape:export-xdpi="96"
       inkscape:export-ydpi="96"><tspan
         sodipodi:role="line"
         id="tspan4678"
         x="66.817383"
         y="177.26324"
         style="font-style:normal;font-variant:normal;font-weight:bold;font-stretch:normal;font-size:19.75555611px;line-height:0.5;font-family:'Sitka Small';-inkscape-font-specification:'Sitka Small Bold';stroke-width:0.26458332"
         rotate="0 0 0 0 0 0 0"
         dy="-1.67">BEARDY</tspan><tspan
         sodipodi:role="line"
         x="66.817383"
         y="190.8494"
         style="font-style:normal;font-variant:normal;font-weight:bold;font-stretch:normal;font-size:19.75555611px;line-height:0.5;font-family:'Sitka Small';-inkscape-font-specification:'Sitka Small Bold';stroke-width:0.26458332"
         id="tspan4682"
         rotate="0 0 0 0 0 0 0 0">DIGITAL</tspan></text>
  </g>
</svg>
